<?xml version="1.0" encoding="utf-8"?>
<svg
  version="1.1"
  xmlns="http://www.w3.org/2000/svg"
  xmlns:xlink="http://www.w3.org/1999/xlink"
  x="0px"
  y="0px"
  viewBox="317 130 364 738"
  xml:space="preserve"
>
  <g xmlns="http://www.w3.org/2000/svg" id="object">
    <g>
      <g>
        <g>
          <g>
            <g>
              <linearGradient
                id="SVGID_00000000220723191145355620000013231424183523350934_"
                gradientUnits="userSpaceOnUse"
                x1="317.63"
                y1="500"
                x2="682.37"
                y2="500"
              >
                <stop offset="0.0061" style="stop-color:#8D544A"/>
                <stop offset="0.5228" style="stop-color:#D6AAAA"/>
                <stop offset="1" style="stop-color:#8D544A"/>
              </linearGradient>
              <g>
                <linearGradient
                  id="SVGID_00000060008043233615943670000012046303422116906373_"
                  gradientUnits="userSpaceOnUse"
                  x1="319.0116"
                  y1="499.9125"
                  x2="324.3567"
                  y2="499.9125"
                >
                  <stop offset="0"   style="stop-color:#B78D8A"/>
                  <stop offset="0.3745" style="stop-color:#DDAAA6"/>
                  <stop offset="0.6815" style="stop-color:#F5BCB8"/>
                  <stop offset="0.8704" style="stop-color:#FEC3BF"/>
                  <stop offset="1"   style="stop-color:#FFC4C0"/>
                </linearGradient>
                <path
                  style="fill:url(#SVGID_00000060008043233615943670000012046303422116906373_);"
                  d="
                    M362.624,861.806
                      c-0.387-0.037-0.774-0.074-1.161-0.12
                      h-0.028
                      c-0.764-0.092-1.52-0.203-2.266-0.332
                      c-4.55-0.774-8.888-2.183-12.913-4.136
                      c-0.285-0.138-0.562-0.276-0.847-0.414
                      c-0.719-0.378-1.428-0.755-2.128-1.161
                      c-0.322-0.184-0.635-0.368-0.949-0.562
                      c-1.584-0.958-3.113-2.008-4.568-3.141
                      c-0.267-0.203-0.525-0.405-0.783-0.617
                      c-0.774-0.626-1.529-1.271-2.257-1.934
                      c-0.24-0.221-0.479-0.442-0.709-0.672
                      c-0.276-0.258-0.543-0.516-0.81-0.783
                      c-0.258-0.267-0.525-0.534-0.783-0.801
                      c-0.175-0.175-0.341-0.35-0.507-0.534
                      c-0.212-0.23-0.424-0.461-0.626-0.691
                      c-1.234-1.382-2.385-2.828-3.454-4.338
                      c-0.193-0.267-0.378-0.543-0.562-0.811
                      c-0.58-0.847-1.124-1.713-1.639-2.597
                      c-0.193-0.313-0.378-0.636-0.553-0.958
                      c-1.335-2.395-2.468-4.909-3.38-7.516
                      c-0.129-0.359-0.249-0.709-0.359-1.069
                      c-0.58-1.805-1.059-3.647-1.428-5.526
                      c-0.074-0.378-0.147-0.755-0.212-1.133
                      c-0.451-2.653-0.691-5.379-0.691-8.161
                      V186.199
                      c0-25.836,20.429-46.992,45.979-48.181
                      c-23.017,1.188-41.374,20.282-41.374,43.575
                      v636.812
                      C323.617,840.907,340.73,859.485,362.624,861.806
                    z
                  "
                />
                <linearGradient
                  id="SVGID_00000083776159923987197470000011598630192387189408_"
                  gradientUnits="userSpaceOnUse"
                  x1="676.4936"
                  y1="499.9493"
                  x2="681.7923"
                  y2="499.9493"
                >
                  <stop offset="0"   style="stop-color:#FFC4C0"/>
                  <stop offset="0.1296" style="stop-color:#FEC3BF"/>
                  <stop offset="0.3185" style="stop-color:#F5BCB8"/>
                  <stop offset="0.6255" style="stop-color:#DDAAA6"/>
                  <stop offset="1"   style="stop-color:#B78D8A"/>
                </linearGradient>
                <path
                  style="fill:url(#SVGID_00000083776159923987197470000011598630192387189408_);"
                  d="
                    M680.988,186.199
                      v627.601
                      c0,5.167-0.82,10.15-2.33,14.82
                      c-0.11,0.359-0.23,0.719-0.359,1.069
                      c-0.12,0.359-0.249,0.709-0.387,1.059
                      c-0.092,0.267-0.193,0.534-0.304,0.792
                      c-0.313,0.783-0.645,1.557-0.995,2.321
                      c-0.156,0.341-0.313,0.682-0.479,1.013
                      c-0.23,0.47-0.461,0.93-0.709,1.391
                      c-0.157,0.313-0.322,0.617-0.497,0.921
                      c-0.175,0.322-0.359,0.645-0.553,0.967
                      c-0.516,0.884-1.068,1.759-1.649,2.616
                      c-0.184,0.267-0.369,0.543-0.562,0.81
                      c-0.212,0.304-0.433,0.599-0.654,0.894
                      c-0.212,0.304-0.442,0.599-0.663,0.884
                      c-0.23,0.295-0.46,0.58-0.691,0.866
                      c-0.23,0.285-0.47,0.571-0.718,0.857
                      c-0.479,0.562-0.967,1.115-1.474,1.649
                      c-0.774,0.829-1.575,1.63-2.413,2.413
                      c-0.249,0.221-0.497,0.451-0.755,0.682
                      c-0.58,0.516-1.17,1.013-1.768,1.511
                      c-0.258,0.203-0.525,0.405-0.792,0.617
                      c-0.875,0.682-1.778,1.326-2.699,1.943
                      c-0.304,0.203-0.617,0.405-0.93,0.608
                      c-0.626,0.405-1.262,0.783-1.907,1.151
                      c-0.313,0.184-0.635,0.368-0.958,0.534
                      c-1.041,0.571-2.1,1.105-3.187,1.584
                      c-0.285,0.138-0.571,0.258-0.856,0.378
                      c-0.341,0.157-0.682,0.295-1.032,0.433
                      c-0.35,0.138-0.7,0.276-1.05,0.405
                      c-0.783,0.295-1.575,0.571-2.376,0.82
                      c-0.286,0.092-0.562,0.175-0.847,0.258
                      c-1.05,0.313-2.128,0.59-3.214,0.829
                      c-0.378,0.083-0.755,0.166-1.142,0.239
                      c-0.396,0.083-0.801,0.157-1.216,0.221
                      c-0.755,0.129-1.51,0.24-2.266,0.332
                      h-0.028
                      c-0.387,0.046-0.774,0.083-1.161,0.12
                      c21.894-2.321,39.016-20.899,39.016-43.4
                      V181.594
                      c0-22.897-17.73-41.733-40.186-43.502
                      C661.195,139.861,680.988,160.76,680.988,186.199
                    z
                  "
                />
                <linearGradient
                  id="SVGID_00000160896849857157964290000005549067166555924112_"
                  gradientUnits="userSpaceOnUse"
                  x1="500"
                  y1="866.6419"
                  x2="500"
                  y2="824.3206"
                >
                  <stop offset="0"   style="stop-color:#FEC3BF"/>
                  <stop offset="0.2339" style="stop-color:#F0B6B2"/>
                  <stop offset="0.6722" style="stop-color:#CC928F"/>
                  <stop offset="1"   style="stop-color:#AD7471"/>
                </linearGradient>
                <path
                  style="fill:url(#SVGID_00000160896849857157964290000005549067166555924112_);"
                  d="
                    M680.988,813.801
                      v4.605
                      c0,26.6-21.636,48.236-48.236,48.236
                      H367.257
                      c-26.6,0-48.245-21.636-48.245-48.236
                      v-4.605
                      c0,2.781,0.24,5.508,0.691,8.161
                      c0.065,0.378,0.138,0.755,0.212,1.133
                      c0.368,1.879,0.847,3.721,1.428,5.526
                      c0.111,0.359,0.23,0.709,0.359,1.069
                      c0.912,2.606,2.045,5.121,3.38,7.516
                      c0.175,0.322,0.359,0.645,0.553,0.958
                      c0.516,0.884,1.059,1.75,1.639,2.597
                      c0.184,0.267,0.368,0.543,0.562,0.811
                      c1.068,1.511,2.22,2.957,3.454,4.338
                      c0.203,0.23,0.415,0.461,0.626,0.691
                      c0.166,0.184,0.332,0.359,0.507,0.534
                      c0.258,0.267,0.525,0.534,0.783,0.801
                      c0.267,0.267,0.534,0.525,0.81,0.783
                      c0.23,0.23,0.47,0.451,0.709,0.672
                      c0.728,0.663,1.483,1.308,2.257,1.934
                      c0.258,0.212,0.516,0.414,0.783,0.617
                      c1.455,1.133,2.984,2.183,4.568,3.141
                      c0.313,0.193,0.626,0.378,0.949,0.562
                      c0.7,0.405,1.409,0.783,2.128,1.161
                      c0.285,0.138,0.562,0.276,0.847,0.414
                      c4.025,1.953,8.363,3.362,12.913,4.136
                      c0.746,0.129,1.501,0.24,2.266,0.332
                      h0.028
                      c0.774,0.092,1.547,0.166,2.33,0.221
                      c0.396,0.028,0.801,0.055,1.197,0.074
                      c0.746,0.037,1.501,0.055,2.266,0.055
                      h265.496
                      c0.755,0,1.501-0.018,2.247-0.055
                      c0.396-0.018,0.801-0.046,1.197-0.074
                      c0.635-0.046,1.262-0.101,1.888-0.175
                      c0.147-0.009,0.295-0.028,0.442-0.046
                      h0.028
                      c0.764-0.092,1.52-0.203,2.266-0.332
                      c0.414-0.064,0.82-0.138,1.216-0.221
                      c0.387-0.074,0.765-0.156,1.142-0.239
                      c1.087-0.239,2.164-0.516,3.214-0.829
                      c0.286-0.083,0.571-0.166,0.847-0.258
                      c0.801-0.249,1.594-0.525,2.376-0.82
                      c0.35-0.129,0.7-0.267,1.05-0.405
                      c0.35-0.138,0.691-0.276,1.032-0.433
                      c0.285-0.12,0.571-0.24,0.856-0.378
                      c1.087-0.479,2.146-1.013,3.187-1.584
                      c0.322-0.166,0.636-0.341,0.958-0.534
                      c0.645-0.368,1.28-0.746,1.907-1.151
                      c0.313-0.193,0.626-0.396,0.93-0.608
                      c0.921-0.617,1.824-1.262,2.699-1.943
                      c0.267-0.203,0.534-0.414,0.792-0.617
                      c0.599-0.497,1.188-0.995,1.768-1.511
                      c0.258-0.221,0.507-0.451,0.755-0.682
                      c0.838-0.783,1.64-1.584,2.413-2.413
                      c0.507-0.534,1.004-1.087,1.474-1.649
                      c0.249-0.286,0.488-0.571,0.718-0.857
                      c0.24-0.286,0.47-0.571,0.691-0.866
                      c0.23-0.295,0.451-0.589,0.663-0.884
                      c0.23-0.295,0.442-0.59,0.654-0.894
                      c0.193-0.267,0.378-0.543,0.562-0.81
                      c0.58-0.857,1.133-1.732,1.649-2.616
                      c0.193-0.322,0.378-0.645,0.553-0.967
                      c0.175-0.304,0.341-0.608,0.497-0.921
                      c0.249-0.461,0.479-0.921,0.709-1.391
                      c0.166-0.332,0.332-0.672,0.479-1.013
                      c0.35-0.765,0.682-1.538,0.995-2.321
                      c0.111-0.258,0.212-0.525,0.304-0.792
                      c0.138-0.35,0.267-0.7,0.387-1.059
                      c0.129-0.35,0.249-0.709,0.359-1.069
                      C680.169,823.951,680.988,818.968,680.988,813.801
                    z
                  "
                />
              </g>
              <linearGradient
                id="SVGID_00000096749894721479156310000009917658617191037079_"
                gradientUnits="userSpaceOnUse"
                x1="500"
                y1="173.765"
                x2="500"
                y2="120.9238"
              >
                <stop offset="0"   style="stop-color:#AD7471"/>
                <stop offset="0.015" style="stop-color:#AF7673"/>
                <stop offset="0.296" style="stop-color:#D29894"/>
                <stop offset="0.5617" style="stop-color:#EBB0AC"/>
                <stop offset="0.8035" style="stop-color:#FABFBB"/>
                <stop offset="1"   style="stop-color:#FFC4C0"/>
              </linearGradient>
              <path
                style="fill:url(#SVGID_00000096749894721479156310000009917658617191037079_);"
                d="
                  M680.988,181.594
                    v4.605
                    c0-25.044-19.177-45.685-43.621-48.006
                    c-0.387-0.037-0.783-0.074-1.17-0.101
                    c-0.396-0.028-0.801-0.055-1.197-0.074
                    h-0.009
                    c-0.746-0.037-1.483-0.055-2.238-0.055
                    H367.257
                    c-0.755,0-1.501,0.018-2.238,0.055
                    h-0.028
                    c-25.55,1.188-45.979,22.345-45.979,48.181
                    v-4.605
                    c0-0.479,0.009-0.949,0.028-1.418
                    c0-0.359,0.018-0.709,0.037-1.059
                    c0.037-0.774,0.092-1.538,0.175-2.303
                    c0.037-0.396,0.083-0.792,0.129-1.179
                    c0.028-0.212,0.055-0.414,0.083-0.626
                    c0.028-0.249,0.065-0.497,0.111-0.755
                    c0.055-0.396,0.12-0.792,0.193-1.188
                    c0.12-0.691,0.258-1.372,0.414-2.045
                    c0.074-0.341,0.157-0.672,0.24-1.004
                    c0.24-1.004,0.516-1.98,0.829-2.957
                    c0.101-0.304,0.203-0.617,0.304-0.921
                    c0.129-0.378,0.258-0.755,0.396-1.124
                    c0.11-0.313,0.23-0.617,0.35-0.921
                    c0.101-0.258,0.193-0.507,0.304-0.755
                    c0.12-0.304,0.249-0.608,0.378-0.903
                    c0.102-0.23,0.194-0.451,0.304-0.672
                    c0.147-0.332,0.295-0.654,0.461-0.986
                    c0.267-0.571,0.553-1.142,0.856-1.704
                    c0.147-0.285,0.304-0.571,0.47-0.857
                    c0.175-0.332,0.368-0.663,0.562-0.986
                    c1.336-2.275,2.855-4.43,4.541-6.457
                    c0.24-0.285,0.479-0.571,0.728-0.857
                    c0.276-0.313,0.553-0.635,0.847-0.949
                    c0.479-0.516,0.958-1.022,1.455-1.511
                    c0.534-0.534,1.078-1.05,1.63-1.557
                    c0.562-0.497,1.124-0.995,1.704-1.474
                    c0.285-0.239,0.58-0.47,0.875-0.709
                    c0.59-0.46,1.188-0.912,1.805-1.354
                    c0.608-0.433,1.225-0.856,1.861-1.271
                    c0.635-0.405,1.271-0.801,1.925-1.179
                    c0.322-0.193,0.654-0.378,0.986-0.562
                    c0.332-0.184,0.663-0.359,0.995-0.534
                    c0.341-0.175,0.672-0.35,1.013-0.516
                    c0.341-0.166,0.682-0.332,1.032-0.497
                    c0.682-0.313,1.382-0.617,2.091-0.903
                    c0.331-0.138,0.672-0.276,1.013-0.405
                    c0.027-0.018,0.064-0.028,0.092-0.037
                    c0.341-0.129,0.691-0.249,1.032-0.378
                    c0.341-0.11,0.682-0.23,1.022-0.35
                    c0.387-0.12,0.774-0.249,1.17-0.359
                    c0.368-0.111,0.737-0.212,1.105-0.313
                    c0.378-0.101,0.746-0.203,1.124-0.295
                    c0.378-0.092,0.755-0.184,1.133-0.267
                    c0.764-0.175,1.529-0.322,2.303-0.451
                    c0.378-0.064,0.764-0.129,1.151-0.184
                    c0.829-0.12,1.667-0.221,2.505-0.295
                    c0.663-0.064,1.336-0.111,2.008-0.147
                    c0.405-0.019,0.82-0.037,1.234-0.046
                    c0.414-0.009,0.829-0.018,1.243-0.018
                    h265.496
                    c0.414,0,0.829,0.009,1.243,0.018
                    c0.341,0.009,0.691,0.018,1.032,0.037
                    c0.783,0.037,1.557,0.092,2.33,0.166
                    h0.028
                    c0.396,0.037,0.783,0.083,1.17,0.129
                    c0.396,0.046,0.783,0.101,1.17,0.157
                    c0.387,0.055,0.774,0.12,1.16,0.184
                    c0.387,0.064,0.765,0.138,1.142,0.212
                    c0.009-0.009,0.018-0.009,0.018,0
                    c0.378,0.074,0.755,0.157,1.133,0.24
                    c0.35,0.074,0.691,0.157,1.031,0.23
                    c0.083,0.018,0.157,0.037,0.221,0.055
                    c0.322,0.083,0.645,0.166,0.967,0.258
                    c0.451,0.12,0.903,0.249,1.345,0.387
                    c0.304,0.092,0.608,0.184,0.903,0.286
                    c0.672,0.221,1.336,0.451,1.999,0.7
                    c0.451,0.157,0.893,0.332,1.326,0.516
                    c0.322,0.129,0.636,0.267,0.958,0.405
                    c0.35,0.147,0.691,0.304,1.041,0.47
                    c0.341,0.157,0.682,0.322,1.022,0.488
                    c2.432,1.188,4.734,2.579,6.908,4.154
                    c0.267,0.184,0.534,0.378,0.792,0.58
                    c0.958,0.718,1.879,1.464,2.772,2.247
                    c0.396,0.341,0.783,0.691,1.161,1.05
                    c1.557,1.446,3.012,2.993,4.347,4.624
                    c0.249,0.295,0.479,0.58,0.709,0.875
                    c0.488,0.617,0.949,1.234,1.391,1.861
                    c0.23,0.313,0.451,0.635,0.663,0.958
                    c0.378,0.543,0.737,1.105,1.087,1.667
                    c0.175,0.286,0.341,0.571,0.516,0.857
                    c0.313,0.543,0.626,1.087,0.921,1.649
                    c0.147,0.267,0.295,0.534,0.424,0.811
                    c0.488,0.93,0.93,1.87,1.354,2.837
                    c0.101,0.249,0.212,0.497,0.313,0.755
                    c0.396,0.958,0.764,1.934,1.096,2.92
                    c0.129,0.368,0.249,0.728,0.359,1.096
                    c0.663,2.118,1.179,4.292,1.547,6.512
                    c0.037,0.23,0.074,0.47,0.111,0.718
                    c0.055,0.387,0.111,0.774,0.157,1.161
                    c0.046,0.396,0.092,0.783,0.129,1.179
                    c0.046,0.396,0.074,0.792,0.11,1.188
                    c0.046,0.728,0.083,1.455,0.101,2.192
                    C680.979,180.654,680.988,181.124,680.988,181.594
                    z
                "
              />
            </g>
            <g>
              <path
                style="fill:#404040;"
                d="
                  M635,138.019
                    h-0.009
                    c-0.737-0.037-1.483-0.055-2.238-0.055
                    H367.257
                    c-0.755,0-1.501,0.018-2.238,0.055
                    h-0.028
                    c-23.017,1.188-41.374,20.282-41.374,43.575
                    v636.812
                    c0,22.898,17.721,41.733,40.177,43.502
                    c0.396,0.028,0.801,0.055,1.197,0.074
                    c0.746,0.037,1.501,0.055,2.266,0.055
                    h265.496
                    c0.755,0,1.501-0.018,2.247-0.055
                    c0.396-0.018,0.801-0.046,1.197-0.074
                    c22.456-1.768,40.186-20.604,40.186-43.502
                    V181.594
                    C676.383,158.291,658.017,139.198,635,138.019
                    z

                  M672.699,818.406
                    c0,20.705-16.165,38.206-36.76,39.827
                    c-0.368,0.028-0.746,0.055-1.124,0.065
                    c-0.682,0.037-1.372,0.055-2.063,0.055
                    H367.257
                    c-0.7,0-1.4-0.018-2.091-0.055
                    c-0.368-0.009-0.746-0.037-1.087-0.065
                    c-20.622-1.621-36.778-19.121-36.778-39.827
                    V181.594
                    c0-21.24,16.588-38.749,37.791-39.891
                    h0.018
                    l0.092-0.009
                    c0.672-0.028,1.363-0.046,2.054-0.046
                    h265.496
                    c0.691,0,1.382,0.018,2.054,0.046
                    l0.065,0.009
                    c21.221,1.114,37.828,18.633,37.828,39.891
                    V818.406
                    z
                "
              />
            </g>

            <linearGradient
              id="SVGID_00000158719476673808259510000014313770246371973816_"
              gradientUnits="userSpaceOnUse"
              x1="659.8224"
              y1="500.1888"
              x2="672.6896"
              y2="500.1888"
            >
              <stop offset="0"   style="stop-color:#F1F1F1"/>
              <stop offset="0.0012" style="stop-color:#F0F0F0"/>
              <stop offset="0.1385" style="stop-color:#B7B7B7"/>
              <stop offset="0.2715" style="stop-color:#888888"/>
              <stop offset="0.397"   style="stop-color:#636363"/>
              <stop offset="0.5134" style="stop-color:#494949"/>
              <stop offset="0.6172" style="stop-color:#393939"/>
              <stop offset="0.6978" style="stop-color:#333333"/>
            </linearGradient>
            <path
              style="fill:url(#SVGID_00000158719476673808259510000014313770246371973816_);"
              d="
                M672.69,181.852
                  v636.812
                  c0,3.942-0.589,7.774-1.676,11.394
                  c-0.875,2.892-2.063,5.655-3.546,8.244
                  c-0.304,0.534-0.626,1.059-0.949,1.575
                  c-0.497,0.774-1.013,1.529-1.547,2.266
                  c-1.529,2.082-3.251,4.007-5.14,5.766
                  c3.491-6.097,5.49-13.171,5.49-20.65
                  v-7.341
                  c0.018-0.433,0.028-0.875,0.028-1.317
                  V181.788
                  c0-0.451-0.009-0.903-0.028-1.345
                  v-7.184
                  c0-7.571-1.999-14.682-5.499-20.788
                  C667.753,159.783,672.69,170.265,672.69,181.852
                  z
              "
            />
            <g>
              <path
                d="
                  M634.678,145.379
                    l-0.169-0.011
                    c-0.581-0.021-1.163-0.032-1.754-0.032
                    h-265.5
                    c-0.602,0-1.205,0.011-1.797,0.032
                    l-0.18,0.021
                    h-0.085
                    c-19.191,1.078-34.209,16.972-34.209,36.206
                    v636.806
                    c0,18.811,14.658,34.684,33.395,36.164
                    c0.275,0.021,0.581,0.042,0.877,0.053
                    h0.106
                    c0.624,0.032,1.258,0.053,1.892,0.053
                    h265.5
                    c0.624,0,1.247-0.021,1.86-0.053
                    h0.116
                    c0.307-0.011,0.623-0.032,0.919-0.063
                    c18.705-1.469,33.363-17.353,33.363-36.153
                    V181.595
                    C669.013,162.298,653.933,146.393,634.678,145.379
                    z

                  M659.344,818.412
                    c0,6.034-2.061,11.646-5.517,16.159
                    c-0.19,0.243-0.38,0.476-0.57,0.708
                    c-0.581,0.708-1.205,1.384-1.849,2.029
                    c-0.571,0.56-1.173,1.109-1.797,1.628
                    H649.6
                    c-0.782,0.644-1.606,1.247-2.462,1.807
                    c-0.856,0.56-1.733,1.067-2.653,1.522
                    h-0.011
                    c-0.454,0.232-0.919,0.444-1.395,0.644
                    c0,0,0,0-0.011,0
                    c-0.465,0.201-0.951,0.391-1.437,0.56
                    c-0.972,0.349-1.976,0.645-3.001,0.877
                    c-1.226,0.275-2.484,0.465-3.773,0.571
                    c-0.116,0.01-0.233,0.021-0.349,0.032
                    h-0.169
                    l-0.116,0.011
                    h-0.127
                    c-0.116,0.01-0.222,0.01-0.328,0.021
                    c-0.116,0-0.222,0.011-0.338,0.011
                    c-0.232,0-0.465,0.01-0.687,0.01
                    H367.255
                    c-0.222,0-0.454-0.01-0.687-0.01
                    c-0.233-0.011-0.465-0.021-0.698-0.032
                    h-0.095
                    l-0.106-0.011
                    h-0.169
                    c-0.116-0.011-0.233-0.021-0.359-0.032
                    c-13.728-1.078-24.486-12.724-24.486-26.505
                    V181.595
                    c0-14.013,10.885-25.617,24.835-26.536
                    h0.232
                    l0.359-0.032
                    c0.433-0.021,0.814-0.021,1.173-0.021
                    h265.489
                    c0.359,0,0.75,0,1.173,0.021
                    l0.127,0.011
                    h0.127
                    c0.085,0,0.18,0.011,0.264,0.021
                    c0.264,0.011,0.518,0.032,0.771,0.063
                    c0.116,0,0.232,0.011,0.349,0.032
                    c0.233,0.021,0.465,0.042,0.697,0.084
                    c0.275,0.021,0.55,0.063,0.824,0.116
                    c0.01,0,0.032,0,0.042,0.011
                    c0.401,0.053,0.793,0.127,1.183,0.211
                    c0.074,0.021,0.148,0.042,0.222,0.053
                    c0.328,0.064,0.645,0.148,0.962,0.232
                    c0.465,0.127,0.93,0.264,1.395,0.412
                    c0.37,0.106,0.74,0.233,1.099,0.37
                    c0.391,0.137,0.782,0.296,1.163,0.465
                    c0.771,0.317,1.511,0.676,2.24,1.078
                    c0.666,0.349,1.31,0.74,1.934,1.152
                    c0.137,0.095,0.275,0.19,0.423,0.285
                    c0.254,0.18,0.507,0.359,0.761,0.539
                    c0.338,0.232,0.655,0.486,0.972,0.75
                    c0.634,0.518,1.247,1.057,1.828,1.628
                    c0.307,0.275,0.592,0.571,0.856,0.877
                    c0.275,0.296,0.55,0.602,0.814,0.909
                    c1.067,1.247,2.018,2.579,2.832,4.005
                    c0.412,0.708,0.782,1.448,1.131,2.198
                    c0.338,0.75,0.655,1.511,0.93,2.304
                    c0.138,0.391,0.264,0.782,0.381,1.184
                    c0.254,0.867,0.476,1.744,0.634,2.642
                    c0.074,0.359,0.137,0.708,0.18,1.067
                    c0.19,1.258,0.285,2.558,0.285,3.868
                    V818.412
                    z
                "
              />
              <path
                d="
                  M411.651,167.265
                    c-0.095-0.18-0.169-0.359-0.254-0.539
                    c-0.021-0.074-0.053-0.138-0.074-0.201
                    C411.429,166.779,411.535,167.022,411.651,167.265
                    z
                "
              />
              <path
                d="
                  M588.675,166.525
                    c-0.021,0.063-0.053,0.127-0.074,0.201
                    c-0.085,0.18-0.159,0.359-0.254,0.539
                    C588.464,167.022,588.57,166.779,588.675,166.525
                    z
                "
              />
            </g>
            <path
              d="
                M594.435,155.006
                  c-2.188,0.116-3.963,1.807-4.185,3.974
                  c0,0.201-0.011,0.391-0.021,0.581
                  c-0.032,0.803-0.116,1.596-0.254,2.378
                  c-0.042,0.275-0.085,0.539-0.148,0.803
                  c0,0.011,0,0.011,0,0.011
                  c-0.064,0.328-0.138,0.645-0.222,0.962
                  c-0.063,0.285-0.148,0.571-0.232,0.856
                  c-0.021,0.063-0.042,0.127-0.063,0.201
                  c-0.021,0.063-0.042,0.137-0.074,0.212
                  c-0.011,0.063-0.032,0.116-0.053,0.169
                  c-0.031,0.095-0.063,0.19-0.095,0.285
                  c-0.042,0.105-0.074,0.211-0.116,0.317
                  c-0.084,0.264-0.19,0.518-0.296,0.771
                  c-0.106,0.254-0.211,0.497-0.328,0.74
                  c-0.01,0.042-0.021,0.074-0.042,0.105
                  c-0.01,0.021-0.01,0.032-0.021,0.053
                  c-0.095,0.211-0.201,0.412-0.307,0.613
                  c-0.085,0.18-0.18,0.359-0.275,0.528
                  c-0.021,0.053-0.053,0.105-0.095,0.169
                  c-0.042,0.095-0.095,0.18-0.148,0.264
                  c-0.064,0.127-0.138,0.243-0.212,0.359
                  c-0.021,0.032-0.031,0.064-0.053,0.095
                  c-0.021,0.042-0.053,0.084-0.085,0.137
                  c-0.053,0.085-0.095,0.158-0.148,0.232
                  c-0.053,0.095-0.106,0.18-0.169,0.264
                  c-0.042,0.074-0.095,0.148-0.148,0.222
                  c-0.021,0.042-0.053,0.074-0.085,0.116
                  c-0.063,0.095-0.116,0.18-0.18,0.264
                  c-0.042,0.063-0.085,0.127-0.137,0.18
                  c-0.053,0.095-0.116,0.18-0.19,0.264
                  c-0.011,0.021-0.032,0.042-0.042,0.063
                  c-0.011,0.021-0.031,0.042-0.053,0.053
                  c-0.064,0.095-0.138,0.19-0.212,0.285
                  c-0.021,0.042-0.053,0.074-0.085,0.105
                  c-0.074,0.106-0.158,0.212-0.243,0.306
                  h-0.01
                  c-0.106,0.127-0.211,0.254-0.317,0.37
                  c-0.095,0.137-0.211,0.264-0.328,0.38
                  c0,0.011-0.011,0.021-0.011,0.021
                  h-0.011
                  c-0.063,0.085-0.138,0.158-0.211,0.232
                  c-0.074,0.085-0.158,0.169-0.243,0.254
                  c-0.074,0.085-0.148,0.159-0.233,0.233
                  c-0.137,0.148-0.275,0.285-0.433,0.423
                  c-0.106,0.116-0.211,0.211-0.338,0.317
                  c-0.074,0.063-0.137,0.127-0.211,0.19
                  c-0.169,0.148-0.349,0.296-0.518,0.433
                  c-0.158,0.137-0.328,0.264-0.497,0.402
                  c-0.105,0.085-0.201,0.159-0.306,0.232
                  c-0.116,0.095-0.233,0.18-0.359,0.264
                  c0,0.011-0.011,0.011-0.011,0.011
                  c-0.116,0.085-0.233,0.169-0.359,0.243
                  c-0.053,0.053-0.105,0.085-0.158,0.116
                  c-0.201,0.127-0.402,0.264-0.602,0.381
                  c-0.158,0.116-0.317,0.211-0.476,0.296
                  c-0.201,0.127-0.402,0.243-0.613,0.338
                  c-0.074,0.053-0.158,0.095-0.233,0.137
                  c-0.021,0.011-0.032,0.021-0.053,0.021
                  c-0.148,0.085-0.296,0.159-0.454,0.232
                  c-0.127,0.074-0.264,0.138-0.412,0.201
                  c-0.116,0.063-0.243,0.116-0.37,0.169
                  c-0.063,0.032-0.127,0.053-0.201,0.085
                  c-0.053,0.031-0.106,0.053-0.169,0.074
                  h-0.011
                  c-0.328,0.138-0.644,0.264-0.972,0.381
                  c-0.307,0.105-0.602,0.211-0.909,0.306
                  c-0.338,0.106-0.666,0.201-1.004,0.285
                  c-0.676,0.169-1.374,0.317-2.071,0.423
                  c-0.285,0.042-0.581,0.084-0.877,0.116
                  c-0.063,0.01-0.116,0.01-0.18,0.021
                  c-0.254,0.021-0.507,0.042-0.75,0.053
                  c-0.296,0.021-0.581,0.032-0.867,0.042
                  c-0.095,0-0.19,0-0.275,0.011
                  H430.631
                  c-0.085-0.011-0.18-0.011-0.275-0.011
                  c-0.285-0.011-0.571-0.021-0.866-0.042
                  c-0.243-0.01-0.497-0.032-0.75-0.053
                  c-0.063-0.011-0.116-0.011-0.18-0.021
                  c-0.296-0.032-0.592-0.074-0.877-0.116
                  c-0.698-0.106-1.395-0.254-2.071-0.423
                  c-0.338-0.084-0.666-0.18-1.004-0.285
                  c-0.306-0.095-0.602-0.201-0.909-0.306
                  c-0.328-0.116-0.645-0.243-0.972-0.381
                  h-0.011
                  c-0.064-0.021-0.116-0.042-0.169-0.074
                  c-0.074-0.032-0.137-0.053-0.201-0.085
                  c-0.127-0.053-0.254-0.106-0.37-0.169
                  c-0.148-0.063-0.285-0.127-0.412-0.201
                  c-0.159-0.074-0.307-0.148-0.455-0.232
                  c-0.021,0-0.031-0.011-0.053-0.021
                  c-0.074-0.042-0.159-0.084-0.233-0.137
                  c-0.211-0.095-0.412-0.211-0.613-0.338
                  c-0.159-0.085-0.317-0.18-0.476-0.296
                  c-0.201-0.116-0.402-0.254-0.602-0.381
                  c-0.053-0.031-0.106-0.063-0.159-0.116
                  c-0.127-0.074-0.243-0.158-0.359-0.243
                  c0,0-0.01,0-0.01-0.011
                  c-0.127-0.085-0.243-0.169-0.359-0.264
                  c-0.106-0.074-0.201-0.148-0.307-0.232
                  c-0.169-0.137-0.338-0.264-0.497-0.402
                  c-0.169-0.137-0.349-0.285-0.518-0.433
                  c-0.074-0.063-0.137-0.127-0.211-0.19
                  c-0.127-0.106-0.232-0.201-0.338-0.317
                  c-0.158-0.137-0.296-0.275-0.433-0.423
                  c-0.085-0.074-0.159-0.148-0.233-0.233
                  c-0.085-0.084-0.169-0.169-0.243-0.254
                  c-0.074-0.074-0.148-0.148-0.212-0.232
                  h-0.01
                  c-0.064-0.063-0.116-0.127-0.169-0.201
                  c-0.169-0.19-0.328-0.381-0.486-0.571
                  h-0.011
                  c-0.084-0.095-0.169-0.201-0.243-0.306
                  c-0.032-0.032-0.063-0.064-0.084-0.105
                  c-0.074-0.095-0.148-0.19-0.212-0.285
                  c-0.021-0.011-0.042-0.032-0.053-0.053
                  c-0.011-0.021-0.032-0.042-0.042-0.063
                  c-0.074-0.085-0.138-0.169-0.19-0.264
                  c-0.053-0.053-0.095-0.116-0.137-0.18
                  c-0.063-0.085-0.116-0.169-0.18-0.264
                  c-0.032-0.032-0.053-0.074-0.085-0.116
                  c-0.053-0.074-0.106-0.148-0.148-0.222
                  c-0.064-0.084-0.116-0.169-0.169-0.264
                  c-0.053-0.074-0.095-0.148-0.148-0.232
                  c-0.021-0.042-0.053-0.085-0.085-0.137
                  c-0.021-0.032-0.032-0.063-0.053-0.095
                  c-0.074-0.116-0.148-0.232-0.211-0.359
                  c-0.053-0.085-0.106-0.169-0.148-0.264
                  c-0.031-0.053-0.063-0.116-0.095-0.169
                  c-0.095-0.169-0.19-0.349-0.275-0.528
                  c-0.106-0.201-0.211-0.402-0.306-0.613
                  c-0.011-0.021-0.011-0.032-0.021-0.053
                  c-0.021-0.032-0.032-0.063-0.042-0.105
                  c-0.116-0.243-0.222-0.486-0.327-0.74
                  c-0.106-0.254-0.212-0.507-0.296-0.771
                  c-0.042-0.106-0.074-0.212-0.116-0.317
                  c-0.032-0.095-0.063-0.19-0.095-0.285
                  c-0.021-0.053-0.042-0.106-0.053-0.169
                  c-0.031-0.074-0.053-0.138-0.074-0.212
                  c-0.021-0.064-0.042-0.137-0.063-0.201
                  c-0.085-0.285-0.169-0.571-0.233-0.856
                  c-0.085-0.317-0.159-0.634-0.222-0.962
                  c0,0,0,0,0-0.011
                  c-0.064-0.264-0.106-0.528-0.148-0.803
                  c-0.138-0.782-0.222-1.575-0.254-2.378
                  c-0.01-0.19-0.021-0.381-0.021-0.581
                  c-0.222-2.167-1.997-3.857-4.185-3.974
                  H594.435
                  z
              "
            />
            <path
              d="
                M429.49,179.587
                  c0.296,0.021,0.581,0.032,0.866,0.042
                  c-0.158,0-0.327,0-0.486-0.011
                  c-0.169,0-0.338-0.011-0.507-0.032
                  c-0.19-0.01-0.37-0.032-0.56-0.042
                  c-0.021,0-0.042,0-0.063-0.011
                  C428.993,179.555,429.247,179.577,429.49,179.587
                  z
              "
            />
            <path
              d="
                M571.26,179.534
                  c-0.021,0.011-0.042,0.011-0.064,0.011
                  c-0.19,0.011-0.37,0.032-0.56,0.042
                  c-0.169,0.021-0.338,0.032-0.507,0.032
                  c-0.159,0.011-0.328,0.011-0.486,0.011
                  c0.285-0.011,0.571-0.021,0.867-0.042
                  C570.752,179.577,571.006,179.555,571.26,179.534
                  z
              "
            />
            <path
              d="
                M411.027,165.754
                  c-0.01-0.011-0.01-0.021-0.021-0.032
                  c-0.032-0.095-0.063-0.19-0.095-0.285
                  C410.954,165.542,410.985,165.648,411.027,165.754
                  z
              "
            />
            <path
              d="
                M411.651,167.265
                  c-0.095-0.18-0.169-0.359-0.254-0.539
                  c-0.021-0.074-0.053-0.138-0.074-0.201
                  C411.429,166.779,411.535,167.022,411.651,167.265
                  z
              "
            />
            <path
              d="
                M414.251,171.535
                  c-0.095-0.106-0.18-0.222-0.264-0.338
                  c0.01,0.021,0.032,0.042,0.053,0.053
                  C414.103,171.344,414.177,171.439,414.251,171.535
                  z
              "
            />
            <path
              d="
                M415.075,172.517
                  c-0.116-0.116-0.222-0.232-0.317-0.359
                  c-0.064-0.074-0.127-0.137-0.18-0.211
                  h0.011
                  C414.747,172.137,414.906,172.327,415.075,172.517
                  z
              "
            />
            <path
              d="
                M415.466,172.951
                  c-0.085-0.074-0.158-0.158-0.222-0.232
                  h0.01
                  C415.318,172.803,415.392,172.876,415.466,172.951
                  z
              "
            />
            <path
              d="
                M417.939,175.202
                  c-0.169-0.116-0.338-0.254-0.497-0.391
                  c-0.095-0.074-0.201-0.158-0.296-0.254
                  c-0.084-0.063-0.148-0.127-0.222-0.19
                  c0.169,0.148,0.349,0.296,0.518,0.433
                  C417.601,174.937,417.77,175.064,417.939,175.202
                  z
              "
            />
            <path
              d="
                M418.246,175.434
                  c0.116,0.095,0.233,0.18,0.359,0.264
                  c-0.042-0.021-0.074-0.042-0.106-0.064
                  C418.415,175.571,418.33,175.508,418.246,175.434
                  z
              "
            />
            <path
              d="
                M419.736,176.449
                  c-0.127-0.063-0.243-0.137-0.359-0.211
                  c-0.011,0-0.011-0.011-0.021-0.011
                  c-0.074-0.053-0.148-0.106-0.222-0.159
                  C419.334,176.195,419.535,176.332,419.736,176.449
                  z
              "
            />
            <path
              d="
                M423.699,178.383
                  c-0.275-0.095-0.539-0.19-0.814-0.307
                  c-0.053-0.021-0.106-0.042-0.159-0.074
                  C423.054,178.14,423.371,178.266,423.699,178.383
                  z
              "
            />
            <path
              d="
                M424.607,178.689
                  c0.338,0.106,0.666,0.201,1.004,0.285
                  c-0.222-0.053-0.455-0.116-0.677-0.18
                  c-0.116-0.032-0.222-0.063-0.328-0.095
                  c-0.148-0.042-0.296-0.095-0.444-0.148
                  c-0.158-0.053-0.317-0.106-0.465-0.169
                  C424.005,178.488,424.301,178.594,424.607,178.689
                  z
              "
            />
            <path
              d="
                M427.683,179.397
                  c0.285,0.042,0.581,0.084,0.877,0.116
                  c-0.264-0.021-0.528-0.053-0.782-0.095
                  c-0.032,0-0.064-0.011-0.095-0.011
                  c-0.116-0.021-0.233-0.042-0.349-0.064
                  c-0.232-0.032-0.465-0.074-0.698-0.127
                  c-0.296-0.063-0.581-0.127-0.877-0.201
                  c-0.042-0.01-0.095-0.021-0.148-0.042
                  C426.288,179.143,426.985,179.291,427.683,179.397
                  z
              "
            />
            <path
              d="
                M429.49,179.587
                  h-0.127
                  c-0.064,0-0.137,0-0.201-0.01
                  c-0.116-0.011-0.243-0.021-0.359-0.032
                  c-0.021,0-0.042,0-0.063-0.011
                  C428.993,179.555,429.247,179.577,429.49,179.587
                  z
              "
            />
            <path
              d="
                M569.368,179.64
                  c-0.085,0.011-0.18,0.011-0.275,0.011
                  H430.906
                  c-0.095,0-0.19,0-0.275-0.011
                  H569.368
                  z
              "
            />
            <path
              d="
                M570.509,179.587
                  c0.243-0.01,0.497-0.032,0.75-0.053
                  c-0.021,0.011-0.042,0.011-0.064,0.011
                  c-0.116,0.011-0.243,0.021-0.359,0.032
                  c-0.063,0.01-0.138,0.01-0.201,0.01
                  H570.509
                  z
              "
            />
            <path
              d="
                M572.316,179.397
                  c0.698-0.106,1.395-0.254,2.071-0.423
                  c-0.053,0.021-0.106,0.032-0.148,0.042
                  c-0.296,0.074-0.581,0.138-0.877,0.201
                  c-0.232,0.053-0.465,0.095-0.697,0.127
                  c-0.116,0.021-0.232,0.042-0.349,0.064
                  c-0.032,0-0.063,0.011-0.095,0.011
                  c-0.254,0.042-0.518,0.074-0.782,0.095
                  C571.735,179.482,572.031,179.439,572.316,179.397
                  z
              "
            />
            <path
              d="
                M576.3,178.383
                  c-0.148,0.063-0.307,0.116-0.465,0.169
                  c-0.148,0.053-0.296,0.106-0.444,0.148
                  c-0.106,0.031-0.212,0.063-0.328,0.095
                  c-0.222,0.063-0.455,0.127-0.677,0.18
                  c0.338-0.084,0.666-0.18,1.004-0.285
                  C575.698,178.594,575.994,178.488,576.3,178.383
                  z
              "
            />
            <path
              d="
                M576.3,178.383
                  c0.328-0.116,0.644-0.243,0.972-0.381
                  c-0.053,0.032-0.105,0.053-0.158,0.074
                  C576.839,178.193,576.575,178.287,576.3,178.383
                  z
              "
            />
            <path
              d="
                M580.263,176.449
                  c0.201-0.116,0.401-0.254,0.602-0.381
                  c-0.074,0.053-0.148,0.106-0.222,0.159
                  c-0.01,0-0.01,0.011-0.021,0.011
                  C580.506,176.311,580.39,176.385,580.263,176.449
                  z
              "
            />
            <path
              d="
                M581.754,175.434
                  c-0.085,0.074-0.169,0.137-0.254,0.201
                  c-0.031,0.021-0.064,0.042-0.106,0.064
                  C581.521,175.614,581.637,175.529,581.754,175.434
                  z
              "
            />
            <path
              d="
                M583.075,174.367
                  c-0.074,0.064-0.138,0.127-0.222,0.19
                  c-0.095,0.095-0.201,0.18-0.296,0.254
                  c-0.158,0.137-0.328,0.275-0.497,0.391
                  c0.169-0.137,0.338-0.264,0.497-0.402
                  C582.726,174.663,582.905,174.515,583.075,174.367
                  z
              "
            />
            <path
              d="
                M584.755,172.718
                  c-0.064,0.074-0.137,0.158-0.222,0.232
                  c0.074-0.074,0.148-0.148,0.211-0.232
                  H584.755
                  z
              "
            />
            <path
              d="
                M585.42,171.947
                  c-0.053,0.074-0.116,0.137-0.18,0.211
                  c-0.042,0.053-0.085,0.106-0.148,0.159
                  c0.106-0.116,0.211-0.243,0.317-0.37
                  H585.42
                  z
              "
            />
            <path
              d="
                M586.012,171.196
                  c-0.085,0.116-0.169,0.232-0.264,0.338
                  c0.074-0.095,0.148-0.19,0.212-0.285
                  C585.981,171.239,586.002,171.217,586.012,171.196
                  z
              "
            />
            <path
              d="
                M588.675,166.525
                  c-0.021,0.063-0.053,0.127-0.074,0.201
                  c-0.085,0.18-0.159,0.359-0.254,0.539
                  C588.464,167.022,588.57,166.779,588.675,166.525
                  z
              "
            />
            <path
              d="
                M589.088,165.437
                  c-0.032,0.095-0.064,0.19-0.095,0.285
                  c-0.011,0.011-0.011,0.021-0.021,0.032
                  C589.014,165.648,589.045,165.542,589.088,165.437
                  z
              "
            />
            <g>
              <linearGradient
                id="SVGID_00000002353241371547731520000016944088899132945801_"
                gradientUnits="userSpaceOnUse"
                x1="334.6881"
                y1="838.5726"
                x2="665.3211"
                y2="838.5726"
              >
                <stop offset="0"     style="stop-color:#000000"/>
                <stop offset="0.1045" style="stop-color:#141414"/>
                <stop offset="0.2593" style="stop-color:#2C2C2C"/>
                <stop offset="0.4027" style="stop-color:#3B3B3B"/>
                <stop offset="0.5229" style="stop-color:#404040"/>
                <stop offset="0.6306" style="stop-color:#393939"/>
                <stop offset="0.7927" style="stop-color:#242424"/>
                <stop offset="0.9882" style="stop-color:#020202"/>
                <stop offset="1"     style="stop-color:#000000"/>
              </linearGradient>
              <path
                style="fill:url(#SVGID_00000002353241371547731520000016944088899132945801_);"
                d="
                  M665.321,819.917
                    v7.341
                    c0,7.479-1.999,14.553-5.49,20.65
                    c-6.383,5.913-14.691,9.791-23.874,10.519
                    c-0.368,0.028-0.746,0.055-1.124,0.064
                    c-0.681,0.037-1.372,0.055-2.063,0.055
                    H367.275
                    c-0.7,0-1.4-0.018-2.091-0.055
                    c-0.368-0.009-0.746-0.037-1.087-0.064
                    c-0.507-0.037-1.013-0.092-1.52-0.157
                    c-8.584-1.004-16.33-4.771-22.354-10.353
                    c-3.518-6.116-5.536-13.217-5.536-20.724
                    v-8.593
                    c0,9.809,4.449,18.744,11.467,24.749
                    c5.066,4.347,11.476,7.175,18.522,7.728
                    c0.23,0.018,0.461,0.046,0.691,0.046
                    l0.101,0.009
                    h0.101
                    c0.562,0.028,1.133,0.046,1.704,0.046
                    h265.496
                    c0.553,0,1.114-0.018,1.667-0.046
                    h0.111
                    l0.101-0.009
                    c0.258,0,0.507-0.028,0.755-0.046
                    C651.745,849.796,664.658,836.229,665.321,819.917
                  z
                "
              />
              <linearGradient
                id="SVGID_00000132050124908146351980000010607719726410558649_"
                gradientUnits="userSpaceOnUse"
                x1="334.6881"
                y1="161.653"
                x2="672.7173"
                y2="161.653"
              >
                <stop offset="0"     style="stop-color:#000000"/>
                <stop offset="0.1045" style="stop-color:#141414"/>
                <stop offset="0.2593" style="stop-color:#2C2C2C"/>
                <stop offset="0.4027" style="stop-color:#3B3B3B"/>
                <stop offset="0.5229" style="stop-color:#404040"/>
                <stop offset="0.6306" style="stop-color:#393939"/>
                <stop offset="0.7927" style="stop-color:#242424"/>
                <stop offset="0.9882" style="stop-color:#020202"/>
                <stop offset="1"     style="stop-color:#000000"/>
              </linearGradient>
              <path
                style="fill:url(#SVGID_00000132050124908146351980000010607719726410558649_);"
                d="
                  M672.69,181.658
                    l0.028-0.064
                    c0-21.258-16.607-38.777-37.828-39.891
                    l-0.064-0.009
                    c-0.672-0.028-1.363-0.046-2.054-0.046
                    H367.275
                    c-0.691,0-1.382,0.019-2.054,0.046
                    l-0.092,0.009
                    h-0.018
                    c-0.866,0.046-1.713,0.12-2.56,0.221
                    c-8.612,1.013-16.349,4.743-22.363,10.288
                    c-3.5,6.107-5.499,13.217-5.499,20.788
                    v8.594
                    c0-9.892,4.421-18.799,11.44-24.795
                    c5.213-4.449,11.854-7.295,19.195-7.728
                    h0.175
                    l0.239-0.028
                    c0.562-0.018,1.069-0.028,1.538-0.028
                    h265.496
                    c0.424,0,0.884,0.009,1.391,0.028
                    h0.009
                    l0.332,0.018
                    c16.846,0.884,30.137,14.461,30.819,31.187
                    v-7.184
                    c0-7.571-1.999-14.682-5.499-20.788
                    C667.753,159.59,672.69,170.072,672.69,181.658
                    z
                "
              />
              <linearGradient
                id="SVGID_00000153672770063118757120000009908715560468949427_"
                gradientUnits="userSpaceOnUse"
                x1="327.3012"
                y1="499.9677"
                x2="334.9351"
                y2="499.9677"
              >
                <stop offset="0"   style="stop-color:#404040"/>
                <stop offset="0.644" style="stop-color:#1A1A1A"/>
                <stop offset="1"   style="stop-color:#0A0A0A"/>
              </linearGradient>
              <path
                style="fill:url(#SVGID_00000153672770063118757120000009908715560468949427_);"
                d="
                  M340.205,847.723
                    c-7.94-7.35-12.904-17.841-12.904-29.317
                    V181.594
                    c0-11.587,4.937-22.069,12.867-29.382
                    c-3.5,6.107-5.499,13.217-5.499,20.788
                    v653.999
                    C334.67,834.506,336.687,841.607,340.205,847.723
                    z
                "
              />
              <linearGradient
                id="SVGID_00000001639158593583684730000012543460805375387811_"
                gradientUnits="userSpaceOnUse"
                x1="659.804"
                y1="500.0615"
                x2="672.708"
                y2="500.0615"
              >
                <stop offset="0"   style="stop-color:#0A0A0A"/>
                <stop offset="0.356" style="stop-color:#1A1A1A"/>
                <stop offset="1"   style="stop-color:#404040"/>
              </linearGradient>
              <path
                style="fill:url(#SVGID_00000001639158593583684730000012543460805375387811_);"
                d="
                  M672.708,181.688
                    V818.5
                    c0,3.942-0.589,7.774-1.676,11.393
                    c-0.875,2.892-2.063,5.655-3.546,8.244
                    c-0.304,0.534-0.626,1.059-0.949,1.575
                    c-0.479,0.774-0.995,1.529-1.547,2.266
                    c-1.529,2.109-3.27,4.071-5.186,5.84
                    c0.018-0.028,0.028-0.046,0.046-0.074
                    c3.491-6.097,5.49-13.171,5.49-20.65
                    V173.094
                    c0-7.571-1.999-14.682-5.499-20.788
                    C667.771,159.619,672.708,170.101,672.708,181.688
                    z
                "
              />
            </g>
            <g>
              <linearGradient
                id="SVGID_00000037676193140622509740000000204631296410210196_"
                gradientUnits="userSpaceOnUse"
                x1="478.8156"
                y1="160.0892"
                x2="521.1844"
                y2="160.0892"
              >
                <stop offset="0"     style="stop-color:#333333"/>
                <stop offset="0.0901" style="stop-color:#2B2B2B"/>
                <stop offset="0.2885" style="stop-color:#1E1E1E"/>
                <stop offset="0.4787" style="stop-color:#1A1A1A"/>
                <stop offset="0.7885" style="stop-color:#1C1C1C"/>
                <stop offset="0.8999" style="stop-color:#232323"/>
                <stop offset="0.9792" style="stop-color:#2E2E2E"/>
                <stop offset="1"     style="stop-color:#333333"/>
              </linearGradient>
              <path
                style="fill:url(#SVGID_00000037676193140622509740000000204631296410210196_);"
                d="
                  M520.071,162.315
                    h-40.142
                    c-0.615,0-1.114-0.499-1.114-1.114
                    v-2.225
                    c0-0.615,0.499-1.114,1.114-1.114
                    h40.142
                    c0.615,0,1.114,0.499,1.114,1.114
                    v2.225
                    C521.184,161.816,520.686,162.315,520.071,162.315
                    z
                "
              />
            </g>
            <g>
              <defs>
                <path
                  id="SVGID_00000168839919010260470190000011067215617794455985_"
                  d="
                    M634.512,155.063
                      h-0.239
                      l-0.359-0.037
                      c-0.424-0.018-0.81-0.018-1.17-0.018
                      h-38.307
                      c-2.192,0.111-3.961,1.805-4.182,3.97
                      c-0.009,0.147-0.018,0.295-0.018,0.451
                      v0.055
                      c-0.525,11.228-9.791,20.162-21.138,20.162
                      h-65.395
                      h-7.405
                      h-65.395
                      c-11.347,0-20.613-8.934-21.138-20.162
                      v-0.055
                      c0-0.157-0.009-0.304-0.018-0.451
                      c-0.221-2.165-1.99-3.859-4.182-3.97
                      h-38.307
                      c-0.359,0-0.746,0-1.17,0.018
                      l-0.359,0.037
                      h-0.239
                      c-13.945,0.912-24.832,12.517-24.832,26.536
                      v636.812
                      c0,13.779,10.758,25.431,24.482,26.508
                      c0.138,0.009,0.249,0.018,0.359,0.028
                      h0.092
                      l0.074,0.009
                      h0.157
                      l0.055,0.009
                      c0.461,0.018,0.921,0.037,1.382,0.037
                      h129.04
                      h7.405
                      h129.041
                      c0.46,0,0.921-0.018,1.382-0.037
                      l0.055-0.009
                      h0.157
                      l0.074-0.009
                      h0.092
                      c0.11-0.009,0.221-0.018,0.359-0.028
                      c13.724-1.078,24.482-12.729,24.482-26.508
                      V181.599
                      C659.343,167.58,648.456,155.975,634.512,155.063
                    z
                  "
                />
              </defs>
              <clipPath
                id="SVGID_00000168811057196202945400000002530121031561624716_"
              >
                <use
                  xmlns:xlink="http://www.w3.org/1999/xlink"
                  xlink:href="#SVGID_00000168839919010260470190000011067215617794455985_"
                  style="overflow:visible;"
                />
              </clipPath>
            </g>
          </g>

          <linearGradient
            id="SVGID_00000169529704081687880120000000151342514403285938_"
            gradientUnits="userSpaceOnUse"
            x1="255.6334"
            y1="255.6049"
            x2="744.3716"
            y2="744.3431"
          >
            <stop offset="0"     style="stop-color:#F2F3F4"/>
            <stop offset="0.4788" style="stop-color:#EDEEEF"/>
            <stop offset="1"     style="stop-color:#E2E2E2"/>
          </linearGradient>
        </g>
      </g>
    </g>
  </g>
</svg>
